{
	"asset":{
		"generator":"Khronos glTF Blender I/O v3.6.28",
		"version":"2.0"
	},
	"scene":0,
	"scenes":[
		{
			"name":"Scene",
			"nodes":[
				0
			]
		}
	],
	"nodes":[
		{
			"mesh":0,
			"name":"BM86_Portable",
			"translation":[
				0,
				0.004456736613065004,
				0
			]
		}
	],
	"materials":[
		{
			"doubleSided":true,
			"name":"BM86_Portable.001",
			"normalTexture":{
				"index":0
			},
			"pbrMetallicRoughness":{
				"baseColorTexture":{
					"index":1
				},
				"metallicRoughnessTexture":{
					"index":2
				}
			}
		}
	],
	"meshes":[
		{
			"name":"BM86_Portable",
			"primitives":[
				{
					"attributes":{
						"POSITION":0,
						"NORMAL":1,
						"TEXCOORD_0":2
					},
					"indices":3,
					"material":0
				}
			]
		}
	],
	"textures":[
		{
			"sampler":0,
			"source":0
		},
		{
			"sampler":0,
			"source":1
		},
		{
			"sampler":0,
			"source":2
		}
	],
	"images":[
		{
			"mimeType":"image/png",
			"name":"BM86_Portable_NormalOpenGL",
			"uri":"BM86_Portable_NormalOpenGL.png"
		},
		{
			"mimeType":"image/png",
			"name":"BM86_Portable_BaseColorOFF",
			"uri":"BM86_Portable_BaseColorOFF.png"
		},
		{
			"mimeType":"image/png",
			"name":"BM86_Portable_Metallic-BM86_Portable_Roughness",
			"uri":"BM86_Portable_Metallic-BM86_Portable_Roughness.png"
		}
	],
	"accessors":[
		{
			"bufferView":0,
			"componentType":5126,
			"count":25103,
			"max":[
				0.22416110336780548,
				0.3274938762187958,
				0.21223057806491852
			],
			"min":[
				-0.219902902841568,
				-0.00011926555453101173,
				-0.1824527531862259
			],
			"type":"VEC3"
		},
		{
			"bufferView":1,
			"componentType":5126,
			"count":25103,
			"type":"VEC3"
		},
		{
			"bufferView":2,
			"componentType":5126,
			"count":25103,
			"type":"VEC2"
		},
		{
			"bufferView":3,
			"componentType":5123,
			"count":91881,
			"type":"SCALAR"
		}
	],
	"bufferViews":[
		{
			"buffer":0,
			"byteLength":301236,
			"byteOffset":0,
			"target":34962
		},
		{
			"buffer":0,
			"byteLength":301236,
			"byteOffset":301236,
			"target":34962
		},
		{
			"buffer":0,
			"byteLength":200824,
			"byteOffset":602472,
			"target":34962
		},
		{
			"buffer":0,
			"byteLength":183762,
			"byteOffset":803296,
			"target":34963
		}
	],
	"samplers":[
		{
			"magFilter":9729,
			"minFilter":9987
		}
	],
	"buffers":[
		{
			"byteLength":987060,
			"uri":"ComputerModel.bin"
		}
	]
}
